<mxfile host="app.diagrams.net" agent="Mozilla/5.0 (Windows NT 10.0; Win64; x64) AppleWebKit/537.36 (KHTML, like Gecko) Chrome/131.0.0.0 Safari/537.36" version="24.8.6">
  <diagram name="第 1 页" id="PQLmg-3mAu8AkvZh3-dI">
    <mxGraphModel dx="1050" dy="530" grid="0" gridSize="10" guides="1" tooltips="1" connect="1" arrows="1" fold="1" page="1" pageScale="1" pageWidth="1169" pageHeight="827" math="0" shadow="0">
      <root>
        <mxCell id="0" />
        <mxCell id="1" parent="0" />
        <mxCell id="aSFMXKlrTX8TA22RX7NJ-1" value="Task" style="text;html=1;align=center;verticalAlign=middle;resizable=0;points=[];autosize=1;strokeColor=none;fillColor=none;fontSize=24;" vertex="1" parent="1">
          <mxGeometry x="121" y="199" width="67" height="41" as="geometry" />
        </mxCell>
        <mxCell id="aSFMXKlrTX8TA22RX7NJ-2" value="" style="shape=image;verticalLabelPosition=bottom;labelBackgroundColor=default;verticalAlign=top;aspect=fixed;imageAspect=0;image=data:image/png,iVBORw0KGgoAAAANSUhEUgAAAHAAAABzCAIAAADPFhGyAAAOdUlEQVR4Ae2diVtTxxbA+5+8fyK4BEtYRcGHoAhWWutTYxERF5Qoi6xKMMoiKIKiYBCXp0h5+rDCp9YiQvGpLQq1NYhiAgmBkISQ5Sb3vtoJh+HemxDCtZIQvvnac2c5M/PLmbmz3fELyvfHKYEvONXmU0b5gHJsBD6gPqAcE+BYnc9CfUA5JsCxugVtoTqdrrOj/cL5quOF+cfys0tPFn1/62Zf7yubzcYxBu7ULVCgfb0v87Izgr9cKuDzmG5DTOSlizXj4xruOHCmacEBNUxMSMQFTIhMn6iI0Ptt9zgjwZGihQVUIf/w1Ya1OLswgd8hYYAkNagiPSR/d+CW9Xw8VMDnHS/Mt1qtHNHgQM0CAjo4+D52bQTwio1YerlwpfZhLNUdj7uB2zEnDgSvFPhBzILcLJIkOYDBhYqFAtRkMm1JiAdGJWnBRGcczpEmK+6u2xyzHOJfa6jnggYHOhYK0PLSk0Cn/HAIDR/ro+7H2B0b/VGqsED+wMBbDnjMW8WCADo0pIAXeqkomBUfq6e6bX1kyBLENEOUOm8aHChYEEBPlZxAUFYF+ekf0TtNVpTgead8NUobtGLJ8NAQB0jmp2JBAI2KCEVQTme41NiBJtUdT3TGxayyD1eltTXzo8FB6s8PdOBtP6IZvIKnbF2Pw3JRrkgPQRrSRfs5QDI/FZ8f6N3/3kY4vo5e7iJBWrTWs/bBVmx05PxocJD68wO91lCPgO7ZvIJGysXHvhv2uUBIwDIOkMxPxecH2iCtQ0D3bfmSlSAKRf9ljeADOsMGoMlvj+Oz8poVaNelf6I4UatDZqj+HA+f30Jf/voLIFOxvZQgVMDnsRKHl9JO4ZbPwXBGnrMDJUmys6P9eGF+umj/wX27uXIvnv8PFcRkMoYHr0DUrkvCmcicAyV/jlu/2j5sunblMlSuWFLIVVHTUlNysg7XXjinHhkB/Y6EWYDebm7aFBeDV4krua31LpQpJ+swUvvdRn8mUOc+T+vt7T3Q329EpQKdW76eXhngqszBXy7NzjykkH+AXJiCM6C1NdVcFYWpBwf67Gk3RGgqWeWcIB5qerzh62j7EklK0g68ep8CKCpkbHSk/MMgnhcuOwQqra2BSgb6+6WlptTWVNdfusiVG3jbj5cjLTUFZRcW4PdHUzROTfZ99Nms0LNZoVeK6B2C5EAwFLLj8U+4wjv/aeKqqNK6CxWnitdH2ee4Aj4vNjrS0TSXHahaPQKrFQnx696/G8DL+inkwffvVoUGIDqb1i43/LQBmD44F2n3j1oGnlR3PPgL+DyJ+OinKBWukyCIhnr7CE/A550oYs+RHejF81WoDtGRK/GOCc+Ac/nh/TYwN3xSD+A2YUAtT+LWTU3hv02IMxqNnJeHVeGli/aGGx68QqfTMeOwAwXzrq2pZqah+UxM6Fvv3Z2rY20yEvFRxDQ80A/W6lmBNpdNN8Df+nppRaIoqrOjfa5F+uX5M6Yemo/RaIwMD0KFvHXzOi2UotjONplMJrCUt/0yZhqaz9t+GcR3XcBfSqBwfFyzJtzeLdbkhqEGzgRq7YrbFLUM5SUuyIXkuODGS+lwmktrKwW5WSjrirKTeI5IZrFQjUYDXFxp7xwCpSjq2pXLKPfIkCWG9o89KRNo29RqSEjAMkdjw08HtPRkESrh8cJ814COjbkN9JuvYl10nR3tqDQ2kwnfYtNqx0MF9pHQnfLVrED3bLZPBDIPH8SrZDOZ4DFDlOpiSWA11kULBaBFx/IgOxDYLHQeQAmCANWuCDajUSUWay5fxplmZx5Cv6h4XxATqPlJXFiAfcuz/dFDyMWiUAwdPGjo7AQfFwUYbns8UERTLhTKhUKc6Y3rVxHQmPClZaLgg9vsw6mI4CVlouD83YEo9M/R8eTkJKL2kWZq6kdVO3bMlamXAMVpyoXC0cpKcuq8wi8vnkOf40RIiF8HNmiWyRTJyei3mStTbwDKQhPrKxQKuROOEETb5jS/eeMeU48H6pwmRVEqlRKo5e8OFO8Lwh2cxinIzQILRYJ7TD0b6Kw0aUA1D+i7yrD6eTT3CA0oRVFuMPVgoK7QpAHdGssXxvvjLjrcvvrJCpTJ1KJQMLnjPh4MdPzqVft7QygcPXOGxPpNvIZ4k4e2zxQcAcWZ6u9Or7riWeCyBwMllEp5YqJ9nFRXh9cKl+cPFDHVt7biah3JHgyUoijtrVtgpOb+GUuiUGGj0Xi7uWlWB5soc51NQEZI8GygNpNpWCRCTFUFBSR2Wr6zo118NA9Oz9psNuKvP/ChKAr54AQbpHXJO7ebsEknwkSSpHVsjMaO9dGzgZIEoW1sBCMlhodRJVUqZUSYQMDn5R1JRwSldRdQv7lj6zfoK4Wuzg7oSZHP9av2lRR84Ye02Sa7upQ5OcqsLOv4OCtE3NPzgJIkaZbJdC0t6tLS6bG3UKguLoaKiVL3IFghAct+f/0bRVGvXvYAvsNp+6W1NbCytzc5ESXMSk9DcQL9/aAHMA8MwA8mFwqHMzM1UulkV5dVq4XscMEDgRIEXkOQJ58+RRXD55q3m5ugtrt3CoEpLsBKlcFgiF8fhYLwTTpVfj7kAsL4dZb1YIqivAGoMidnvKGBtFgQu7zsDAQlfn0U/g2SVju+7dsEHKWAz6Otkz953A4RZLI/kELjy5fqigpFSgrQlAuF3gl04v5968ytGIvFAgug9ZcugnkigSCI1nt3M0Sp+1OSTpWceMc4902SZEL8OsT0XNVpPDlps1nevVOJxQirdwJlzlt+6+tFOEIClo2NjeJEXJTPVZ1GGg7sTWYmGTt/fnEBvd3chHBs35LAxOGKz6MfHyANayPCmPEXHVDY7IZ3NxOKcx+w8T+PyjBjLjqgVy5fQva1PyWJicMVn77el0iDD+hHXHA+dGPsWlfwMeO0td5FQNdFrWKGLjoLlcn+QDgEfJ5G484HxhWnipEG1l02LweqbWw0DwzgU3ir1QqnmhrqHS5BMU0P+ZjN5pg14Qgo7bMa28TE5LNnytxcb37Lo7opUlLU5eW2qQNJJ48fgzZrmRrtOyJI829uuonSBq1YMjRkX0s2dHUBR5Sj1w7soXpyodDw+DGi0y97g6AI+LzzVWdoyJw8qlTKDTH2s3nwkRJJksOZmXhGSPaegT1FUVatdrK7W1Nfr8zKgqriiyOFBTnAtPbCOScQIUilUm7aEI1ShQqW98veoCBTXx9kodi1S11aqmtpMctkjjYIPG8uDwiQYOzpGdq3T3fnjs1ggCC9Xo9/LD8rU+XwENAU8HmXpbWgaqymBgFV7NplmzoJAaFMweOBkiSJH0KCGv7+ug8W6AR83tbNX7X+0IKvLqOYCoW89GTRyiD7h90CPu9o7hF8ScXc3w8Wqr11C/Q7EjweqKOKURT1++s+OLqF2nJURGhaasqZ8tLqs6cl4oJt3yYErbB/z40iFBbk4DSRck1dnZ1pYiKhVDrJ0SOX72j1IYaGRisr4RVPCx0bG804dAD6UydCZHjQDy13aMnRo1WnU+zZg5iqy8rwk2jM+J5tocTQEDrVNVJU5IgpRVE/dz4Rpe4J9J++WAQnG7Mm/ML5KidLU5PPn8u/+85upElJVqfzBc8GqpFKoYNzzhSdeHh4v+3s6VN52RnZmYfER/P+fa2h59cX+CYd0+JoNE19fcw4uI9nAyUJYvTMGSdM4QweXmdHMmm10przXGl6Qx/qiClps008eKDYu3e0stL0+jU+PWUCten1+tbWYZFIXVICW6du0PQGoBRF0ZmKxabeXtrOmurYMSZH5GPs6YETKB+NPTFR29ho6OrC+81ZWzoo9+wmD9WgMYVOABcc7aqPNzTg0ehyUpLrNL3EQhFWVqbq4mLYu5/s6oIfABeUOTkI4ohEoti7dwbQOdL0KqC0tj8sEk0+f06SpLqiAjHSSKU4RyRbdTogaO7vt+n10yOHudP0NqCI6Vh1tbapCeaj+tZWQCZPSqK7nTtRqCI5GYYE5rdvRySSObV0+Km8pA+F+jAFy/v300D/+kaE9VFdVsZM64aP9wMlbTaYOLKiRJ66lhY38DGTeD9QiqIsg4PmN2+cO9vEBJOOGz6LAqgbXNxO4gPqNjr2hAsaqERccKLoqGe5HVu/QUtZrLvQzB/hb/14Fl9k8zjZB5TlRvb5/IqfCqjBYDh5/Bhyer2eafM0H7V6BOJ7tNDUeINWNdbH+233UDVZ9wtYvpdn1eLzdJGAD6iLoFyNxgKUIIieX1/43KwEPgyy3C/GAlSDXZExnz7e69O6c+eI10OZTwXdARoW6L8yyOdmEIBL7NwB6sq9Ta52194Sb84zpfHx6YuwVKpZzrF4C6U51KPkhP0iLNYbDFleSgRBQM/S1/tqDlktjqhwUqiygmWFmwUoRVFwz1mxRLw4KLlay7GxUfjur/Uey3UR7ECbGm8gI10Z5P/qZY+ruXl7PJvNBjcJxqwJZz0RxA50cnISfb0u4PNWhwr+/NqSNbG3A5xRP4VCDndFC/i8murKGcFTD+xAKYpqf/QQxgcCPm9d1CpR6p7MwwcXocs4dCB553b8KGBy4jYDdvx6CubH/zsEymQKb6pFLjihOQtQiqL6el/lHUnHTXUx09wYu/ZqgxRuMMQNE2RnFgqR1OqR5qably7W1FRXuuHg82sBn1csKXRDw3ySwIhl545/uafnwvmqaw31nU8eM8+eAyIQXAIKsd0TLBYL2DXttnX3FM4pFbyXT58qmVNC9yL7gLrHzWEqH1CHaNwL8AF1j5vDVD6gDtG4F8A9UIPBoFDIcTf4/h28lJ52d+FBf4MMaxkScQEtO+Uw9/9sJfdA4VIWgLhghU/xL4T5gLrXsh2m8gF1iMa9AO6BEgSh95A/A0cnTHH03APFtS9C2QeU4x/dB9QHlGMCHKvzWagPKMcEOFbns1Cugf7D98cpgf8DQT4A5Mi1klAAAAAASUVORK5CYII=;clipPath=inset(6.52% 5.36% 6.52% 5.36% round 9%);" vertex="1" parent="1">
          <mxGeometry x="266" y="56" width="90" height="90" as="geometry" />
        </mxCell>
        <mxCell id="aSFMXKlrTX8TA22RX7NJ-3" value="" style="shape=image;verticalLabelPosition=bottom;labelBackgroundColor=default;verticalAlign=top;aspect=fixed;imageAspect=0;image=data:image/png,iVBORw0KGgoAAAANSUhEUgAAAHAAAABzCAIAAADPFhGyAAAOdUlEQVR4Ae2diVtTxxbA+5+8fyK4BEtYRcGHoAhWWutTYxERF5Qoi6xKMMoiKIKiYBCXp0h5+rDCp9YiQvGpLQq1NYhiAgmBkISQ5Sb3vtoJh+HemxDCtZIQvvnac2c5M/PLmbmz3fELyvfHKYEvONXmU0b5gHJsBD6gPqAcE+BYnc9CfUA5JsCxugVtoTqdrrOj/cL5quOF+cfys0tPFn1/62Zf7yubzcYxBu7ULVCgfb0v87Izgr9cKuDzmG5DTOSlizXj4xruOHCmacEBNUxMSMQFTIhMn6iI0Ptt9zgjwZGihQVUIf/w1Ya1OLswgd8hYYAkNagiPSR/d+CW9Xw8VMDnHS/Mt1qtHNHgQM0CAjo4+D52bQTwio1YerlwpfZhLNUdj7uB2zEnDgSvFPhBzILcLJIkOYDBhYqFAtRkMm1JiAdGJWnBRGcczpEmK+6u2xyzHOJfa6jnggYHOhYK0PLSk0Cn/HAIDR/ro+7H2B0b/VGqsED+wMBbDnjMW8WCADo0pIAXeqkomBUfq6e6bX1kyBLENEOUOm8aHChYEEBPlZxAUFYF+ekf0TtNVpTgead8NUobtGLJ8NAQB0jmp2JBAI2KCEVQTme41NiBJtUdT3TGxayyD1eltTXzo8FB6s8PdOBtP6IZvIKnbF2Pw3JRrkgPQRrSRfs5QDI/FZ8f6N3/3kY4vo5e7iJBWrTWs/bBVmx05PxocJD68wO91lCPgO7ZvIJGysXHvhv2uUBIwDIOkMxPxecH2iCtQ0D3bfmSlSAKRf9ljeADOsMGoMlvj+Oz8poVaNelf6I4UatDZqj+HA+f30Jf/voLIFOxvZQgVMDnsRKHl9JO4ZbPwXBGnrMDJUmys6P9eGF+umj/wX27uXIvnv8PFcRkMoYHr0DUrkvCmcicAyV/jlu/2j5sunblMlSuWFLIVVHTUlNysg7XXjinHhkB/Y6EWYDebm7aFBeDV4krua31LpQpJ+swUvvdRn8mUOc+T+vt7T3Q329EpQKdW76eXhngqszBXy7NzjykkH+AXJiCM6C1NdVcFYWpBwf67Gk3RGgqWeWcIB5qerzh62j7EklK0g68ep8CKCpkbHSk/MMgnhcuOwQqra2BSgb6+6WlptTWVNdfusiVG3jbj5cjLTUFZRcW4PdHUzROTfZ99Nms0LNZoVeK6B2C5EAwFLLj8U+4wjv/aeKqqNK6CxWnitdH2ee4Aj4vNjrS0TSXHahaPQKrFQnx696/G8DL+inkwffvVoUGIDqb1i43/LQBmD44F2n3j1oGnlR3PPgL+DyJ+OinKBWukyCIhnr7CE/A550oYs+RHejF81WoDtGRK/GOCc+Ac/nh/TYwN3xSD+A2YUAtT+LWTU3hv02IMxqNnJeHVeGli/aGGx68QqfTMeOwAwXzrq2pZqah+UxM6Fvv3Z2rY20yEvFRxDQ80A/W6lmBNpdNN8Df+nppRaIoqrOjfa5F+uX5M6Yemo/RaIwMD0KFvHXzOi2UotjONplMJrCUt/0yZhqaz9t+GcR3XcBfSqBwfFyzJtzeLdbkhqEGzgRq7YrbFLUM5SUuyIXkuODGS+lwmktrKwW5WSjrirKTeI5IZrFQjUYDXFxp7xwCpSjq2pXLKPfIkCWG9o89KRNo29RqSEjAMkdjw08HtPRkESrh8cJ814COjbkN9JuvYl10nR3tqDQ2kwnfYtNqx0MF9pHQnfLVrED3bLZPBDIPH8SrZDOZ4DFDlOpiSWA11kULBaBFx/IgOxDYLHQeQAmCANWuCDajUSUWay5fxplmZx5Cv6h4XxATqPlJXFiAfcuz/dFDyMWiUAwdPGjo7AQfFwUYbns8UERTLhTKhUKc6Y3rVxHQmPClZaLgg9vsw6mI4CVlouD83YEo9M/R8eTkJKL2kWZq6kdVO3bMlamXAMVpyoXC0cpKcuq8wi8vnkOf40RIiF8HNmiWyRTJyei3mStTbwDKQhPrKxQKuROOEETb5jS/eeMeU48H6pwmRVEqlRKo5e8OFO8Lwh2cxinIzQILRYJ7TD0b6Kw0aUA1D+i7yrD6eTT3CA0oRVFuMPVgoK7QpAHdGssXxvvjLjrcvvrJCpTJ1KJQMLnjPh4MdPzqVft7QygcPXOGxPpNvIZ4k4e2zxQcAcWZ6u9Or7riWeCyBwMllEp5YqJ9nFRXh9cKl+cPFDHVt7biah3JHgyUoijtrVtgpOb+GUuiUGGj0Xi7uWlWB5soc51NQEZI8GygNpNpWCRCTFUFBSR2Wr6zo118NA9Oz9psNuKvP/ChKAr54AQbpHXJO7ebsEknwkSSpHVsjMaO9dGzgZIEoW1sBCMlhodRJVUqZUSYQMDn5R1JRwSldRdQv7lj6zfoK4Wuzg7oSZHP9av2lRR84Ye02Sa7upQ5OcqsLOv4OCtE3NPzgJIkaZbJdC0t6tLS6bG3UKguLoaKiVL3IFghAct+f/0bRVGvXvYAvsNp+6W1NbCytzc5ESXMSk9DcQL9/aAHMA8MwA8mFwqHMzM1UulkV5dVq4XscMEDgRIEXkOQJ58+RRXD55q3m5ugtrt3CoEpLsBKlcFgiF8fhYLwTTpVfj7kAsL4dZb1YIqivAGoMidnvKGBtFgQu7zsDAQlfn0U/g2SVju+7dsEHKWAz6Otkz953A4RZLI/kELjy5fqigpFSgrQlAuF3gl04v5968ytGIvFAgug9ZcugnkigSCI1nt3M0Sp+1OSTpWceMc4902SZEL8OsT0XNVpPDlps1nevVOJxQirdwJlzlt+6+tFOEIClo2NjeJEXJTPVZ1GGg7sTWYmGTt/fnEBvd3chHBs35LAxOGKz6MfHyANayPCmPEXHVDY7IZ3NxOKcx+w8T+PyjBjLjqgVy5fQva1PyWJicMVn77el0iDD+hHXHA+dGPsWlfwMeO0td5FQNdFrWKGLjoLlcn+QDgEfJ5G484HxhWnipEG1l02LweqbWw0DwzgU3ir1QqnmhrqHS5BMU0P+ZjN5pg14Qgo7bMa28TE5LNnytxcb37Lo7opUlLU5eW2qQNJJ48fgzZrmRrtOyJI829uuonSBq1YMjRkX0s2dHUBR5Sj1w7soXpyodDw+DGi0y97g6AI+LzzVWdoyJw8qlTKDTH2s3nwkRJJksOZmXhGSPaegT1FUVatdrK7W1Nfr8zKgqriiyOFBTnAtPbCOScQIUilUm7aEI1ShQqW98veoCBTXx9kodi1S11aqmtpMctkjjYIPG8uDwiQYOzpGdq3T3fnjs1ggCC9Xo9/LD8rU+XwENAU8HmXpbWgaqymBgFV7NplmzoJAaFMweOBkiSJH0KCGv7+ug8W6AR83tbNX7X+0IKvLqOYCoW89GTRyiD7h90CPu9o7hF8ScXc3w8Wqr11C/Q7EjweqKOKURT1++s+OLqF2nJURGhaasqZ8tLqs6cl4oJt3yYErbB/z40iFBbk4DSRck1dnZ1pYiKhVDrJ0SOX72j1IYaGRisr4RVPCx0bG804dAD6UydCZHjQDy13aMnRo1WnU+zZg5iqy8rwk2jM+J5tocTQEDrVNVJU5IgpRVE/dz4Rpe4J9J++WAQnG7Mm/ML5KidLU5PPn8u/+85upElJVqfzBc8GqpFKoYNzzhSdeHh4v+3s6VN52RnZmYfER/P+fa2h59cX+CYd0+JoNE19fcw4uI9nAyUJYvTMGSdM4QweXmdHMmm10przXGl6Qx/qiClps008eKDYu3e0stL0+jU+PWUCten1+tbWYZFIXVICW6du0PQGoBRF0ZmKxabeXtrOmurYMSZH5GPs6YETKB+NPTFR29ho6OrC+81ZWzoo9+wmD9WgMYVOABcc7aqPNzTg0ehyUpLrNL3EQhFWVqbq4mLYu5/s6oIfABeUOTkI4ohEoti7dwbQOdL0KqC0tj8sEk0+f06SpLqiAjHSSKU4RyRbdTogaO7vt+n10yOHudP0NqCI6Vh1tbapCeaj+tZWQCZPSqK7nTtRqCI5GYYE5rdvRySSObV0+Km8pA+F+jAFy/v300D/+kaE9VFdVsZM64aP9wMlbTaYOLKiRJ66lhY38DGTeD9QiqIsg4PmN2+cO9vEBJOOGz6LAqgbXNxO4gPqNjr2hAsaqERccKLoqGe5HVu/QUtZrLvQzB/hb/14Fl9k8zjZB5TlRvb5/IqfCqjBYDh5/Bhyer2eafM0H7V6BOJ7tNDUeINWNdbH+233UDVZ9wtYvpdn1eLzdJGAD6iLoFyNxgKUIIieX1/43KwEPgyy3C/GAlSDXZExnz7e69O6c+eI10OZTwXdARoW6L8yyOdmEIBL7NwB6sq9Ta52194Sb84zpfHx6YuwVKpZzrF4C6U51KPkhP0iLNYbDFleSgRBQM/S1/tqDlktjqhwUqiygmWFmwUoRVFwz1mxRLw4KLlay7GxUfjur/Uey3UR7ECbGm8gI10Z5P/qZY+ruXl7PJvNBjcJxqwJZz0RxA50cnISfb0u4PNWhwr+/NqSNbG3A5xRP4VCDndFC/i8murKGcFTD+xAKYpqf/QQxgcCPm9d1CpR6p7MwwcXocs4dCB553b8KGBy4jYDdvx6CubH/zsEymQKb6pFLjihOQtQiqL6el/lHUnHTXUx09wYu/ZqgxRuMMQNE2RnFgqR1OqR5qably7W1FRXuuHg82sBn1csKXRDw3ySwIhl545/uafnwvmqaw31nU8eM8+eAyIQXAIKsd0TLBYL2DXttnX3FM4pFbyXT58qmVNC9yL7gLrHzWEqH1CHaNwL8AF1j5vDVD6gDtG4F8A9UIPBoFDIcTf4/h28lJ52d+FBf4MMaxkScQEtO+Uw9/9sJfdA4VIWgLhghU/xL4T5gLrXsh2m8gF1iMa9AO6BEgSh95A/A0cnTHH03APFtS9C2QeU4x/dB9QHlGMCHKvzWagPKMcEOFbns1Cugf7D98cpgf8DQT4A5Mi1klAAAAAASUVORK5CYII=;clipPath=inset(6.52% 5.36% 6.52% 5.36% round 9%);" vertex="1" parent="1">
          <mxGeometry x="266" y="189" width="89" height="89" as="geometry" />
        </mxCell>
        <mxCell id="aSFMXKlrTX8TA22RX7NJ-4" value="" style="shape=image;verticalLabelPosition=bottom;labelBackgroundColor=default;verticalAlign=top;aspect=fixed;imageAspect=0;image=data:image/png,iVBORw0KGgoAAAANSUhEUgAAAHAAAABzCAIAAADPFhGyAAAOdUlEQVR4Ae2diVtTxxbA+5+8fyK4BEtYRcGHoAhWWutTYxERF5Qoi6xKMMoiKIKiYBCXp0h5+rDCp9YiQvGpLQq1NYhiAgmBkISQ5Sb3vtoJh+HemxDCtZIQvvnac2c5M/PLmbmz3fELyvfHKYEvONXmU0b5gHJsBD6gPqAcE+BYnc9CfUA5JsCxugVtoTqdrrOj/cL5quOF+cfys0tPFn1/62Zf7yubzcYxBu7ULVCgfb0v87Izgr9cKuDzmG5DTOSlizXj4xruOHCmacEBNUxMSMQFTIhMn6iI0Ptt9zgjwZGihQVUIf/w1Ya1OLswgd8hYYAkNagiPSR/d+CW9Xw8VMDnHS/Mt1qtHNHgQM0CAjo4+D52bQTwio1YerlwpfZhLNUdj7uB2zEnDgSvFPhBzILcLJIkOYDBhYqFAtRkMm1JiAdGJWnBRGcczpEmK+6u2xyzHOJfa6jnggYHOhYK0PLSk0Cn/HAIDR/ro+7H2B0b/VGqsED+wMBbDnjMW8WCADo0pIAXeqkomBUfq6e6bX1kyBLENEOUOm8aHChYEEBPlZxAUFYF+ekf0TtNVpTgead8NUobtGLJ8NAQB0jmp2JBAI2KCEVQTme41NiBJtUdT3TGxayyD1eltTXzo8FB6s8PdOBtP6IZvIKnbF2Pw3JRrkgPQRrSRfs5QDI/FZ8f6N3/3kY4vo5e7iJBWrTWs/bBVmx05PxocJD68wO91lCPgO7ZvIJGysXHvhv2uUBIwDIOkMxPxecH2iCtQ0D3bfmSlSAKRf9ljeADOsMGoMlvj+Oz8poVaNelf6I4UatDZqj+HA+f30Jf/voLIFOxvZQgVMDnsRKHl9JO4ZbPwXBGnrMDJUmys6P9eGF+umj/wX27uXIvnv8PFcRkMoYHr0DUrkvCmcicAyV/jlu/2j5sunblMlSuWFLIVVHTUlNysg7XXjinHhkB/Y6EWYDebm7aFBeDV4krua31LpQpJ+swUvvdRn8mUOc+T+vt7T3Q329EpQKdW76eXhngqszBXy7NzjykkH+AXJiCM6C1NdVcFYWpBwf67Gk3RGgqWeWcIB5qerzh62j7EklK0g68ep8CKCpkbHSk/MMgnhcuOwQqra2BSgb6+6WlptTWVNdfusiVG3jbj5cjLTUFZRcW4PdHUzROTfZ99Nms0LNZoVeK6B2C5EAwFLLj8U+4wjv/aeKqqNK6CxWnitdH2ee4Aj4vNjrS0TSXHahaPQKrFQnx696/G8DL+inkwffvVoUGIDqb1i43/LQBmD44F2n3j1oGnlR3PPgL+DyJ+OinKBWukyCIhnr7CE/A550oYs+RHejF81WoDtGRK/GOCc+Ac/nh/TYwN3xSD+A2YUAtT+LWTU3hv02IMxqNnJeHVeGli/aGGx68QqfTMeOwAwXzrq2pZqah+UxM6Fvv3Z2rY20yEvFRxDQ80A/W6lmBNpdNN8Df+nppRaIoqrOjfa5F+uX5M6Yemo/RaIwMD0KFvHXzOi2UotjONplMJrCUt/0yZhqaz9t+GcR3XcBfSqBwfFyzJtzeLdbkhqEGzgRq7YrbFLUM5SUuyIXkuODGS+lwmktrKwW5WSjrirKTeI5IZrFQjUYDXFxp7xwCpSjq2pXLKPfIkCWG9o89KRNo29RqSEjAMkdjw08HtPRkESrh8cJ814COjbkN9JuvYl10nR3tqDQ2kwnfYtNqx0MF9pHQnfLVrED3bLZPBDIPH8SrZDOZ4DFDlOpiSWA11kULBaBFx/IgOxDYLHQeQAmCANWuCDajUSUWay5fxplmZx5Cv6h4XxATqPlJXFiAfcuz/dFDyMWiUAwdPGjo7AQfFwUYbns8UERTLhTKhUKc6Y3rVxHQmPClZaLgg9vsw6mI4CVlouD83YEo9M/R8eTkJKL2kWZq6kdVO3bMlamXAMVpyoXC0cpKcuq8wi8vnkOf40RIiF8HNmiWyRTJyei3mStTbwDKQhPrKxQKuROOEETb5jS/eeMeU48H6pwmRVEqlRKo5e8OFO8Lwh2cxinIzQILRYJ7TD0b6Kw0aUA1D+i7yrD6eTT3CA0oRVFuMPVgoK7QpAHdGssXxvvjLjrcvvrJCpTJ1KJQMLnjPh4MdPzqVft7QygcPXOGxPpNvIZ4k4e2zxQcAcWZ6u9Or7riWeCyBwMllEp5YqJ9nFRXh9cKl+cPFDHVt7biah3JHgyUoijtrVtgpOb+GUuiUGGj0Xi7uWlWB5soc51NQEZI8GygNpNpWCRCTFUFBSR2Wr6zo118NA9Oz9psNuKvP/ChKAr54AQbpHXJO7ebsEknwkSSpHVsjMaO9dGzgZIEoW1sBCMlhodRJVUqZUSYQMDn5R1JRwSldRdQv7lj6zfoK4Wuzg7oSZHP9av2lRR84Ye02Sa7upQ5OcqsLOv4OCtE3NPzgJIkaZbJdC0t6tLS6bG3UKguLoaKiVL3IFghAct+f/0bRVGvXvYAvsNp+6W1NbCytzc5ESXMSk9DcQL9/aAHMA8MwA8mFwqHMzM1UulkV5dVq4XscMEDgRIEXkOQJ58+RRXD55q3m5ugtrt3CoEpLsBKlcFgiF8fhYLwTTpVfj7kAsL4dZb1YIqivAGoMidnvKGBtFgQu7zsDAQlfn0U/g2SVju+7dsEHKWAz6Otkz953A4RZLI/kELjy5fqigpFSgrQlAuF3gl04v5968ytGIvFAgug9ZcugnkigSCI1nt3M0Sp+1OSTpWceMc4902SZEL8OsT0XNVpPDlps1nevVOJxQirdwJlzlt+6+tFOEIClo2NjeJEXJTPVZ1GGg7sTWYmGTt/fnEBvd3chHBs35LAxOGKz6MfHyANayPCmPEXHVDY7IZ3NxOKcx+w8T+PyjBjLjqgVy5fQva1PyWJicMVn77el0iDD+hHXHA+dGPsWlfwMeO0td5FQNdFrWKGLjoLlcn+QDgEfJ5G484HxhWnipEG1l02LweqbWw0DwzgU3ir1QqnmhrqHS5BMU0P+ZjN5pg14Qgo7bMa28TE5LNnytxcb37Lo7opUlLU5eW2qQNJJ48fgzZrmRrtOyJI829uuonSBq1YMjRkX0s2dHUBR5Sj1w7soXpyodDw+DGi0y97g6AI+LzzVWdoyJw8qlTKDTH2s3nwkRJJksOZmXhGSPaegT1FUVatdrK7W1Nfr8zKgqriiyOFBTnAtPbCOScQIUilUm7aEI1ShQqW98veoCBTXx9kodi1S11aqmtpMctkjjYIPG8uDwiQYOzpGdq3T3fnjs1ggCC9Xo9/LD8rU+XwENAU8HmXpbWgaqymBgFV7NplmzoJAaFMweOBkiSJH0KCGv7+ug8W6AR83tbNX7X+0IKvLqOYCoW89GTRyiD7h90CPu9o7hF8ScXc3w8Wqr11C/Q7EjweqKOKURT1++s+OLqF2nJURGhaasqZ8tLqs6cl4oJt3yYErbB/z40iFBbk4DSRck1dnZ1pYiKhVDrJ0SOX72j1IYaGRisr4RVPCx0bG804dAD6UydCZHjQDy13aMnRo1WnU+zZg5iqy8rwk2jM+J5tocTQEDrVNVJU5IgpRVE/dz4Rpe4J9J++WAQnG7Mm/ML5KidLU5PPn8u/+85upElJVqfzBc8GqpFKoYNzzhSdeHh4v+3s6VN52RnZmYfER/P+fa2h59cX+CYd0+JoNE19fcw4uI9nAyUJYvTMGSdM4QweXmdHMmm10przXGl6Qx/qiClps008eKDYu3e0stL0+jU+PWUCten1+tbWYZFIXVICW6du0PQGoBRF0ZmKxabeXtrOmurYMSZH5GPs6YETKB+NPTFR29ho6OrC+81ZWzoo9+wmD9WgMYVOABcc7aqPNzTg0ehyUpLrNL3EQhFWVqbq4mLYu5/s6oIfABeUOTkI4ohEoti7dwbQOdL0KqC0tj8sEk0+f06SpLqiAjHSSKU4RyRbdTogaO7vt+n10yOHudP0NqCI6Vh1tbapCeaj+tZWQCZPSqK7nTtRqCI5GYYE5rdvRySSObV0+Km8pA+F+jAFy/v300D/+kaE9VFdVsZM64aP9wMlbTaYOLKiRJ66lhY38DGTeD9QiqIsg4PmN2+cO9vEBJOOGz6LAqgbXNxO4gPqNjr2hAsaqERccKLoqGe5HVu/QUtZrLvQzB/hb/14Fl9k8zjZB5TlRvb5/IqfCqjBYDh5/Bhyer2eafM0H7V6BOJ7tNDUeINWNdbH+233UDVZ9wtYvpdn1eLzdJGAD6iLoFyNxgKUIIieX1/43KwEPgyy3C/GAlSDXZExnz7e69O6c+eI10OZTwXdARoW6L8yyOdmEIBL7NwB6sq9Ta52194Sb84zpfHx6YuwVKpZzrF4C6U51KPkhP0iLNYbDFleSgRBQM/S1/tqDlktjqhwUqiygmWFmwUoRVFwz1mxRLw4KLlay7GxUfjur/Uey3UR7ECbGm8gI10Z5P/qZY+ruXl7PJvNBjcJxqwJZz0RxA50cnISfb0u4PNWhwr+/NqSNbG3A5xRP4VCDndFC/i8murKGcFTD+xAKYpqf/QQxgcCPm9d1CpR6p7MwwcXocs4dCB553b8KGBy4jYDdvx6CubH/zsEymQKb6pFLjihOQtQiqL6el/lHUnHTXUx09wYu/ZqgxRuMMQNE2RnFgqR1OqR5qably7W1FRXuuHg82sBn1csKXRDw3ySwIhl545/uafnwvmqaw31nU8eM8+eAyIQXAIKsd0TLBYL2DXttnX3FM4pFbyXT58qmVNC9yL7gLrHzWEqH1CHaNwL8AF1j5vDVD6gDtG4F8A9UIPBoFDIcTf4/h28lJ52d+FBf4MMaxkScQEtO+Uw9/9sJfdA4VIWgLhghU/xL4T5gLrXsh2m8gF1iMa9AO6BEgSh95A/A0cnTHH03APFtS9C2QeU4x/dB9QHlGMCHKvzWagPKMcEOFbns1Cugf7D98cpgf8DQT4A5Mi1klAAAAAASUVORK5CYII=;clipPath=inset(6.52% 5.36% 6.52% 5.36% round 9%);" vertex="1" parent="1">
          <mxGeometry x="261" y="316" width="90" height="90" as="geometry" />
        </mxCell>
        <mxCell id="aSFMXKlrTX8TA22RX7NJ-5" value="" style="shape=image;verticalLabelPosition=bottom;labelBackgroundColor=default;verticalAlign=top;aspect=fixed;imageAspect=0;image=data:image/png,iVBORw0KGgoAAAANSUhEUgAAAGQAAABsCAIAAAAT04BuAAAFeElEQVR4Ae3cy0vrShgA8POPRLDiwgcUxdMuKlgLxS4UlJZuFLGCK8GlL9p6rBTd3YXgRjeCZ+NGsYj4wJW60E1FVFwVBBGE4hGsbdV2zrnk3hBsOplJ5pHmzCzKOPkymfnlS2rG4DcgCrLAN+RIEQgEFkYSCCyBhSGAESoyS2BhCGCEiswSWBgCGKEis2yEVSqVjo+P4/F4LBZLpVIfHx8YkyMdaunMymazfX19kqp0d3c/PDyQRkDtz7pY2WzW7/eroP6rejweXl4WxaomJYPx8rIiFlyKo5flsFCkeHlZCwtdiouXhbBwpdh7WQXLmBRjL0tgmZFi6cUfy7wUMy/OWIhSkUhkenpaRoF80v79iycWulSxWCyXyzMzMxApBvnFDQtLSn544+7FB8uAlBW8OGAZluLuxRrLpBRfL6ZYRKQ4erHDIijFy4sRFnEpLl4ssChJsfeijkVVirEXXSwGUiy9KGIxk2LmRQuLsRSWl8/ne39/l3fB+qSCxUUKyyuVSmExycHksThKoXtNTU3xx+IuBQAol8uzs7PwxZzJyUnOWLUiJUnS1tYWT6wakurs7CwUCtywcrlcIBCAZ74kSZFIpFgsGhglyi4oV58kSR0dHZlMBqXDyhgyN/jV1VXbSwFA6D343t5eOFat55ScZWQyy+fzQbDq6uouLy8rs5pIC4OrTxknGayRkREI1p9vH6fTeXt7qxyVVIWlFLHL8OjoCI5Fw4uxFDEsAMD8/DxLL/ZSJLEAALFYjI0XFynCWGy8eEmRx6LtxVGKChY9L75StLBoeHGXoohF1ssKUnSxSHlZRIo6lnkv60ixwDLjZSkpRljGvKwmxQ4L18uCUkyx0L1ubm50/+Jgcs3T2LIHgSWadDr98/9yfn4OHwfK86PD4dB9xkRZHd7Z2ZHHdXFxAR8V4lazWCcnJ42Njcrc6uvr9/f34cdG8VI61KygSCUSCWVfh8NxcHAAHxXKVlNYX6TkwdH2wpWSR0XEyziWphRtL2NSpLwMYkGk6HmZkSLiZQRLV4qGl3kp817YWIhSZL1ISZn0wsPCkiLlRVZK8To8PET5BlTHYGAZkDLvRUPKsBcqFopUQ0NDNBr9oVWSyeTLy4v6LFXW5+bm5Gkon263W/e9hOvra60D/tvW3NysdKVZcTgcWPmFhIUiJUmSsdfp1Gq7u7vhcLi9vd3j8SwuLj49Pam34tZPT091HwawvPSxEKXW1tZwJ8Mgfnt7WzOn1I3oXjpYiFKJRILBzI0dYmVlRU2jWUf0gmEhSo2Pj5fLZWMzYbNXNBrVNFI3onjBsEKhkLo7zXo4HKb3fhopylKpNDY2pjl+dWMgEIAfEYYVDAbVfVXW/X6/7ncc/PDMtubz+f7+/sopqFt6enrg4zGO5Xa7Hx8f4b1bauvz83NXV5da50udFlZra+vd3Z2lLFAGc39/39bW9sVI+ZEW1vDw8D+1WSA3L1pYytmwU0VgYZxNgSWwMAQwQkVmCSwMAYxQkVkCC0MAI5RWZsVisZXaLMlkspofLax0Oo3yeGHBmEwmI7BQz4vAQpUCANDCgiz+nZ2d/arNcnV1Ve0yNLX4NzQ0VK1fW7YPDAzAUxS2+DcxMWFLlGqTGh0dNY61t7dXrV9btm9ubhrH+vz8dLvdtnSpnJTT6dT9/wWwyxAAsLy8XNmvLVuWlpbgaaX/tnKhUPgbbvPBYDCXy5nFAgDk8/nBwUFbZpM8qVAohCKln1kydj6fX1hYaGlpsRlZU1NTPB5HlELFksne3t42NjZCoZDX63W5XN9rs7hcLq/XGwwG19fXX19fdS89dYDODV4dKuoCCyMHBJbAwhDACBWZJbAwBDBCRWYJLAwBjNDfMiwrxiw11scAAAAASUVORK5CYII=;" vertex="1" parent="1">
          <mxGeometry x="500" y="196" width="75.93" height="82" as="geometry" />
        </mxCell>
        <mxCell id="aSFMXKlrTX8TA22RX7NJ-7" value="" style="shape=image;verticalLabelPosition=bottom;labelBackgroundColor=default;verticalAlign=top;aspect=fixed;imageAspect=0;image=data:image/png,iVBORw0KGgoAAAANSUhEUgAAAHEAAABxCAIAAABtHNuHAAAQ+0lEQVR4Ae2de1BWRf/Al7uiAgECggICVlgY4pClTwTVMCFOIoaJhGgxhKQ1kgGVmr9QlIs0hgr04mgZZEkhRjkZIWLmXSQCeYQBBIIUieGa8PCc8+udM3PY9tz27HPk4VXPH8zunu9+L59nz21vAPrBoTQBoLTCB/roB0yVbwTji2l1dXVmZub/yTm2bduWl5f3119/Kc+GVON4YapWqwMCAgDpYW5uvn79+qGhIVIOStYbF0zVavW0adNIeY7WW7JkyXjAqn+mFEX5+PiMgtEtlZqaqmSTI9Klf6ZnzpzRDeO/aru4uIyMjBChUKyS/pkmJibCVBwdHePj4zdiH9HR0QYGBrCGK1euKIaHSJH+mcbGxsJE0tPT5Qbi6+sLaygrK5OrQVl5/TN94403YCKZmZlyI3z66adhDT///LNcDcrKP2CqLM//alOSaWdnZ2pqqkql8vb2XrRo0eHDh3HebPTSTm/evJmSkrJw4UJvb+/g4OAjR44MDw8rRVcxpgcOHDAzM4OvQQCAq6trdXW1uK9jz/TTTz81NTVFXHV3d7927Zq4q5hnlWG6Z88exEU2a21tXVlZKeLNGDPNzMxkfUMSdnZ2v//+u4irmKcUYCoClHFaHOtYMt21axfCEckqglVXppJAJbHGxMTAgen+3C8tLeVtUJJAGTd0x6oTU16gL7300tGjR7nf79zWSlHU2bNnH374YZhpTk4OLxGRwueeew7WEBUV9ccffyDyGRkZsAyTDg0NLS4u5rpqZ2dXU1ODaMDPkjPlBRoSEsI863m7RVisPT09u3btevTRR7lxEgSzZcsWRI+hoeGLL75YUlKi1WppmuYFGhYWxjzr6+rqlMVKyFQcKPOT8mK1srKKioqysLBAKDDZefPm4TcHVrKurs7Y2JhXoaen5/Lly7mnWKCMEmWxkjDFASqClRshU2JmZkb82N2+fbuQWm45AlRxrLKZ4gOVhXX69Om//vorU4XgL0VRaWlpRkZGXIJICS9QZbHKYyoXKIvV0dERiY3N+vr67t27t6enhwAlUkWtVm/cuNHBwYFVjiSWL18u/r3Ee7+yt7eXdZeXwZQMKBN2c3NzSEgIHKGxsfGqVauuXr2KcNE9q9Fojhw58uSTT8LmLCwskpOTcbpWdceKyzQ7Oxt2kUmzT3lMELW1tQcPHkxNTf3666/b29sxaxGLVVZWHjx4MCMj49ixY7IGAdVqNffCsre3r6urw3EGi2lFRQXS7wsAkAsUx5vxI8OL1c3N7c6dO5JOYjFdsmQJ0kjvbaAMNV6sBQUFCjC9efOmoaEhzPR+ACqE9fnnn1eA6ZUrV2CgDg4OOL2ikob/VwR+/PFHOHwPDw9Jz6Wv/WvXrsFKTUxMhDopJI39zwlotdo1a9bA4T/++OOSUUgzHRkZmTlzJqx3woQJ9wNWrVYbHR0NBw4A2LhxowJMaZpOTU1FVN/zWHmBAgAaGhqUYTowMDB//vz7B6sQ0I8++kgSqIwxvq6uLu4MnHuytQoBTUhIoChKSaY0TXd1dc2dO5fbWvU+RwEnTkwZiqKQcQcmXnygMtop4xMv1ilTpnD71TFjGG9in3zyCdJoAACygMpmKtRa33zzTcXp9Pb2lpeXp6enh4eHBwYG+vn5BQQEBAUFxcbG7t+/v6qqSqPRKGu0v7/fzs4OYSoXKAlTXqxOTk5Khdff35+bm+vj48PtYUCinThxYmhoaFlZGeZtTtLD0tJSxAQBUEKmNE3funULGa7o7e2VdFpcoK2tLT4+3srKCglMMjt79uzs7GzxjlFx08zZffv2wbYCAwPJfi3pd35eby5evAibNzU1xema5FVF0zRFUQcOHLC0tIR1yk37+PhIznkRcoApP3z4MGzU3d2dLChCpitWrIDNz507V9xdkbPt7e2LFy+GtRGnTU1NU1JSiO+ztbW1iOlvv/1WxHOhUyRM29vbkZGf7OxsIQPi5devX3dyckIiYbPOzs7Lli3bsWNHYWHh999/X1JSkp+fn5CQEBAQMGXKFFYMSSxdupT4PvDMM8/A2vz9/cX95z1LwjQ9PR02bGNjMzAwwKtdvFAIqKmpaWRk5Pnz50WqDw0N5efnIzNPWa+IsRYXF7NKmERTU5OIG7yn+Jn29vZWVVWd5ztOnTqFdKm8++67vKrFC+vr63lbaFhYWEdHh3hd+GxFRcWsWbMQEACApUuXEtwEtFqts7MzrC0qKurcuXN8JM7X1dUxczJgf3ie+01NTXFxcZMnT4b1iqdljSky5oeHh7mfZNbW1l999RXiH052YGDg7bff5jqZnJyMUx2R+eCDD7iqhEo8PDwyMzORDuV/tVPe6RhC6phylUqF+IST/fDDDxG1Ok5RomkaeRMCAJiYmBCMyzY2NiKviYir3CyyLmuU6cDAAO/FyFXBlkyePJlgHuzly5cRp3UHyvyQXKxz5sxBGhHOT445A5DlAACIjY1lNY8yzcvLg4Uk046OjidPnmQV4ScWLFgAKzc0NDxz5gx+dXHJ+Ph4WDkAYPfu3eJVuGcpikpOTkbebRC1SNbMzOzWrVuMqlGmKpUKlps0adIsvuORRx7x9/fPzMy8ffs21xvJkkuXLsFWAABkjzghQ4ODg8h0QQ8PD94niZAGtry6ujoxMXH+/PmP8x2zZ89Gvp6zsrKYuqNM3dzc4GjJ2iDrkFBi9erVsJVZs2b9/fffQsJk5WfPnoVNAACOHz9Opkq81rp162BDSUlJjPwoUxcXF1iitrZWXCPB2c7OTmQdxb59+wj0SFbx9/eHY1m0aJFkFQKBrVu3wlbYC25Mmebn58NOWFhY9PX1EQQjWaWwsBA2ZGxsrPjV8M976LhgumHDBjjUmJgYSTpkAhqNxtbWFrZ17tw5MlUitcYFU+Rr+rPPPhPxWMdTwcHBMNM9e/boqJBbXf9MR0ZGJk2aBMdJ8AHGDUyoBPmsWL16tZAkcbn+mXZ0dMBAzczMyHonMREUFRXB5vz8/DAr4ovpn2ljYyMc5NSpU/G9J5A8efIkbM7X15dAiXgV/TOtr6+Hg3RwcBD3WMezp0+fhs3p0msu5In+mba2tsJBWlpaCvmqSPmJEydgcwsWLFBELaxE/0z7+vrgIAEA7Acy7KhSaaQ/JTg4WCnNrB79M6VpGlkGeZc+GZmYkTmOmzdvZlkolRgXTCMiIuCmStZnjEnEy8sLtnXs2DHMivhi44Lpxx9/DMc5Z84csgF0ybDVajVsCABwN2YfjQumyKwAAMAvv/wiCYhA4K233oKZzpw5k0CJZBXZTO/GRw5FUcgw1CuvvCLpulyB3t5eZI3wzp075SrBkUfWY/P0Sz322GPwb7tixYr/8B15eXklJSVkg880Te/fvx+2AgBQfBp7XFwcbMLMzKyzsxOHEVemtbW1oKCAD8N/cnNzkUcuO+N3tK9v/fr1sCviaXNz86SkJIKhnsHBQWtra1i5i4uL7nOtWBzceWRr1qxhz+InmpubAwMDYT8l0+x9bJQpsr5EUgUAwN/fn2DGB3d1QEREBNnwBsKopaVlxowZsOdmZmYEo5A1NTVyJ295e3uzz9tRpjRNy1oFz7j+3nvvIYFJZjUaDXd1QFxcnI5YW1pa3N3dYaAAAIKd6u7cuePp6YnoEc9aWlpeuHCBDfxfTJltLpAeOXF15ubmBMvE6+rqJkyYgGh+9dVXibv9a2pquEAXLlxI0PVVUFCAOCaedXNzg4HyzEOhabq7u3v37t2vvfbaSr4jNDQUGaTNy8tjfyL8xN69e7m+urm5lZeX4yuhaXpkZCQtLQ0Z5gIAWFlZXb9+XZYqRhi5jTo5OYWHh6/kO9auXctuuQIbQtspfE4ovWrVKhjHU089JSQpXr5jxw5YD5uOjIy8ePGieF2apoeGhr788st58+axFdmElZXVpUuXJDVwBZqampAR5h9++IErJl5CwrSsrIz1nkmwjzxxY9yzQlgBAL6+vhkZGeXl5fC9haKotra2oqKihIQEof0kiIHSNI18LDg6OhLcPUiYarVaDw8PGOuyZcu4vDBLsrKyuFcurNzAwMDJycnDw8PNzc3GxgY+xU27u7sT7ynb09ODTL7btGkTZhSwGAlT7oQvCwsL9k0C1o6ZrqmpQfaF5cLCKVm3bl1/fz+mUa4YsgTa1NT0zz//5IpJlhAy7e/vR55UZFN9WP80Gs327dvlvhWyoD09PXXfSjYnJ4dVCAAIDQ1l3ZOVIGS6c+dO2LyJiQnByz/X0b6+vpycHOQrGTaEpA0NDUNCQkpLS3W5Slg3kJkWVlZWBFMt+d+lWBtCibS0NCQ2ZUfQKIo6ffp0SkpKaGgoMmsZAGBkZOTt7R0dHZ2Tk9Pc3CzkJEE596FvY2NDgFV2O+UCBQAUFhYSxIBZpbOzU61WX716tbq6uqGhYXBwELMigVh4eDjSXAiwymPKCzQsLEzHz0qC4O9Slba2NqTHAABgY2NTVVWFb1EGU16gyLRrfMPjVrKhoWH69OlIa7W1tcXHisuUdzr2vQeU+aWFsGJu0YjF9KeffkJ+NwDAvQpUBKuzszPOnEsspkFBQQjTexuoCNZDhw5J3rWkmXZ0dCDdCvcDUCGsAQEBCjBFVjXY2toSDJlI+jFuBZDBGGX27EJWCxsaGn733XfjFoGyjmm1WmRRh5eXl6QJ6Wufu2eXqanp/YBVq9W+/vrryIMkMTFRAaa8e3aZmJjc21h5gRoYGDQ2NirDdHBwEFl8x6zmJMBKUdRY3o4piiL4luUFCgDAnHshfe0zP0t3dze3i1NWa62oqAgKCnrooYcAANOmTYuIiCAb3pBsJjRNDw8Pf/HFFyqViuljnjFjRmxsbEtLC05dIaCbN2/G7P3CZcqM/fFilZwyR1EUsoqHvUk9++yzhw4d0qUjGcF048aN5ORk7sclAGDixIklJSWIPJLVHajsvj6h1iqClaKotWvXshB5ExYWFps2bdKxB7a1tXXx4sXIqzRizsTERMRVoV3l8Fso8wvJaKdMBVlYcYCyYfv5+eF8+SEti8lWVlZKDlUxhoSwKgVUdjsVx1pcXAwHLAsoE/CGDRtgDZjpgYEBZC00+zvxJrhYFQRKyFTk3spiFQL6zjvvdHd3Z2VlIZuqMMEbGxt3d3djomTFPv/8c152L7zwwvHjx/8Zu37iiScQARirskDJmYpgPXr0qBBQeKu2kZGREydOrFy5EtkAHGdjcZYmk3j55ZdhZLa2tklJSfDUs87OTiGsigPViakQViMjI+7UJQBAYmIi77tIZGQkTCQjIwNBJplF3p1535p5sRoZGbm6usLWmbTchxLioexnFFKf95HF9VIIKE3TyP+OS0tLQ0xIZpFdpoQGpXmxcl3VEaiu7ZSJVhKrCNCxZErTtCRW3YEqw5S5CSCNhf3933//fd5Lnm19Y9ZOGYu3b9/mnbb2j8Nbt24Vd5X1WTyh67XPah8cHNy2bRv8AaNSqb755htWQCgxxkxpmu7r69uyZQv8/+JUKlVRUZGQh3LLFWPKGNZoNJcvXz516lR9fT2mK2PPlHFseHj4woUL5eXl+K5iRqQwU0yrsJi+mMI+KJt+wFRZnv/Vpn+myDTa0NDQGzdutGIf1dXV9vb27CMRAKDgrmpkvPXPNDc3FyaiY9rExOSuLmHHoax/pn19fchSRl2wrly5Eifsuyqjf6Y0TYv8r3FZfC0tLXXcplsR1uOCKU3T27Ztk4WPK4ws/FKEDpmS8cKUpunffvstJibG1dXVWs4xdepULy+v9PT0rq4uMgSK1xpHTBWPTV8KHzBVnvz/A2gaUsB0Kq7yAAAAAElFTkSuQmCC;" vertex="1" parent="1">
          <mxGeometry x="707" y="201.25" width="71.5" height="71.5" as="geometry" />
        </mxCell>
        <mxCell id="aSFMXKlrTX8TA22RX7NJ-8" value="if ...&lt;div style=&quot;font-size: 24px;&quot;&gt;else ...&lt;/div&gt;" style="rhombus;whiteSpace=wrap;html=1;fontSize=24;labelBackgroundColor=none;fillColor=#dae8fc;strokeColor=#6c8ebf;" vertex="1" parent="1">
          <mxGeometry x="656.25" y="329" width="173" height="80" as="geometry" />
        </mxCell>
        <mxCell id="aSFMXKlrTX8TA22RX7NJ-9" value="" style="ellipse;whiteSpace=wrap;html=1;aspect=fixed;" vertex="1" parent="1">
          <mxGeometry x="699" y="447" width="80" height="80" as="geometry" />
        </mxCell>
        <mxCell id="aSFMXKlrTX8TA22RX7NJ-10" value="Solution" style="text;html=1;align=center;verticalAlign=middle;resizable=0;points=[];autosize=1;strokeColor=none;fillColor=none;fontSize=24;" vertex="1" parent="1">
          <mxGeometry x="409" y="466.5" width="105" height="41" as="geometry" />
        </mxCell>
      </root>
    </mxGraphModel>
  </diagram>
</mxfile>
